<svg xmlns="http://www.w3.org/2000/svg" width="28.429" height="28.429" viewBox="0 0 28.429 28.429"><defs><style>.a{fill:#707070;}</style></defs><path class="a" d="M19.545,0H8.884A8.885,8.885,0,0,0,0,8.884V19.545a8.885,8.885,0,0,0,8.884,8.884H19.545a8.885,8.885,0,0,0,8.884-8.884V8.884A8.885,8.885,0,0,0,19.545,0Zm6.219,19.545a6.226,6.226,0,0,1-6.219,6.219H8.884a6.226,6.226,0,0,1-6.219-6.219V8.884A6.226,6.226,0,0,1,8.884,2.665H19.545a6.226,6.226,0,0,1,6.219,6.219Z"/><path class="a" d="M135.107,128a7.107,7.107,0,1,0,7.107,7.107A7.107,7.107,0,0,0,135.107,128Zm0,11.549a4.442,4.442,0,1,1,4.442-4.442A4.448,4.448,0,0,1,135.107,139.549Z" transform="translate(-120.893 -120.893)"/><circle class="a" cx="0.947" cy="0.947" r="0.947" transform="translate(20.907 5.627)"/></svg>