<svg xmlns="http://www.w3.org/2000/svg" xmlns:xlink="http://www.w3.org/1999/xlink" width="471.704" height="126.298" viewBox="0 0 471.704 126.298"><defs><style>.a{fill:#1d035b;}.b{fill:url(#a);}</style><linearGradient id="a" y1="0.5" x2="1" y2="0.5" gradientUnits="objectBoundingBox"><stop offset="0.004" stop-color="#8e2de2"/><stop offset="1" stop-color="#4a00e0"/></linearGradient></defs><g transform="translate(-145.613 -851.658)"><g transform="translate(280.412 890.179)"><path class="a" d="M451.633,957.859a29.34,29.34,0,0,1,.31,4.485v22.888H439.957V937.291h5.413l31.394,28.146a31.437,31.437,0,0,1-.309-3.943v-24.2h11.831v47.941H482.95Z" transform="translate(-439.957 -936.595)"/><rect class="a" width="11.985" height="47.942" transform="translate(62.247 0.696)"/><path class="a" d="M654.064,985.028c-16.006,0-28.378-9.588-28.378-24.667s11.135-24.589,27.605-24.589a40.689,40.689,0,0,1,21.5,6.418v10.825c-2.707-1.392-11.908-6.727-21.264-6.727s-15.852,5.258-15.929,14.073,7.5,14.151,16.625,14.151c3.325,0,7.346-.7,9.9-2.32V959.743h12.372v17.63a35.017,35.017,0,0,1-22.425,7.655" transform="translate(-540.629 -935.772)"/><path class="a" d="M774.943,965.206v20.027H762.958V937.291h11.985v16.934h23.43V937.291h11.986v47.942H798.3V965.206Z" transform="translate(-615.036 -936.595)"/><path class="a" d="M902.489,985.233V948.194H885.71v-10.9h45.312v10.9h-16.7v37.039Z" transform="translate(-681.572 -936.595)"/><path class="a" d="M1015.809,937.291v36.961h20.1v10.98H1003.9V937.291Z" transform="translate(-745.635 -936.595)"/><path class="a" d="M1082.118,985.155V965.128l-19.8-27.837h14.3l11.367,17.785,12.063-17.785h14.151l-20.259,27.76v20.1Z" transform="translate(-777.302 -936.595)"/></g><g transform="translate(145.613 851.658)"><path class="b" d="M257.406,896.725a55.846,55.846,0,0,1-16.271,36.1l-21.256,21.256-1.683-15.792c-2.26-21.212-12.526-38.79-30.509-52.245A99.129,99.129,0,0,0,165.8,873.726a40.316,40.316,0,0,0,6.989,48.362l35.036,35.035v20.833L162.057,932.82a55.729,55.729,0,0,1-5.415-72.8l3.13-4.191,5.03,1.433a108.589,108.589,0,0,1,31.691,16.412,95.335,95.335,0,0,1,23.21,24.356,85.575,85.575,0,0,1,10.8,23.954,40.736,40.736,0,0,0-.1-57.509l-2.085-2.084,10.733-10.733,2.084,2.086a55.795,55.795,0,0,1,16.271,42.982Z" transform="translate(-145.613 -851.658)"/></g></g></svg>