<svg xmlns="http://www.w3.org/2000/svg" xmlns:xlink="http://www.w3.org/1999/xlink" width="1144.887" height="1292.195" viewBox="0 0 1144.887 1292.195"><defs><style>.a{fill:url(#a);}</style><linearGradient id="a" y1="0.5" x2="1" y2="0.5" gradientUnits="objectBoundingBox"><stop offset="0.004" stop-color="#8e2de2"/><stop offset="1" stop-color="#4a00e0"/></linearGradient></defs><path class="a" d="M979.736-5438.03a571.393,571.393,0,0,1-166.477,369.3L595.78-4851.249l-17.222-161.569C555.434-5229.848,450.4-5409.69,266.409-5547.355c-86.25-64.533-170.63-104.476-223.9-125.991-89.844,161.1-61.99,361.33,71.5,494.808l358.468,358.455v213.15L4.2-5068.729A573.793,573.793,0,0,1-113.787-5239.3a569.157,569.157,0,0,1-48.837-193.965A568.471,568.471,0,0,1-51.2-5813.588l32.017-42.876L32.276-5841.8c6.505,1.856,161.214,46.791,324.238,167.92,96.5,71.7,176.4,155.537,237.467,249.19A875.589,875.589,0,0,1,704.513-5179.6,416.273,416.273,0,0,0,824.744-5447.54a417.239,417.239,0,0,0-121.295-320.453l-21.326-21.326,109.81-109.81,21.326,21.338a567.391,567.391,0,0,1,132.129,205.982A569.731,569.731,0,0,1,979.736-5438.03Z" transform="translate(164.047 5899.128)"/></svg>