<svg xmlns="http://www.w3.org/2000/svg" width="34.813" height="28.286" viewBox="0 0 34.813 28.286"><defs><style>.a{fill:#707070;}</style></defs><path class="a" d="M34.813,67.349A14.88,14.88,0,0,1,30.7,68.476a7.1,7.1,0,0,0,3.14-3.945,14.263,14.263,0,0,1-4.526,1.728,7.137,7.137,0,0,0-12.346,4.88,7.349,7.349,0,0,0,.165,1.628A20.2,20.2,0,0,1,2.424,65.3,7.139,7.139,0,0,0,4.617,74.84a7.048,7.048,0,0,1-3.225-.879v.078a7.17,7.17,0,0,0,5.718,7.013,7.123,7.123,0,0,1-1.871.235,6.311,6.311,0,0,1-1.351-.122,7.2,7.2,0,0,0,6.669,4.972,14.34,14.34,0,0,1-8.849,3.044A13.368,13.368,0,0,1,0,89.083a20.093,20.093,0,0,0,10.949,3.2c13.133,0,20.313-10.879,20.313-20.309,0-.315-.011-.62-.026-.923A14.238,14.238,0,0,0,34.813,67.349Z" transform="translate(0 -64)"/></svg>